<svg t="1647138987552" class="icon" viewBox="0 0 1181 1024" version="1.1" xmlns="http://www.w3.org/2000/svg" p-id="37628" width="200" height="200"><path d="M1125.395692 442.978462L1067.992615 129.004308a69.021538 69.021538 0 0 0 35.052308-59.98277A69.198769 69.198769 0 0 0 1033.787077 0a69.316923 69.316923 0 0 0-65.260308 46.020923H351.428923A69.316923 69.316923 0 0 0 286.168615 0a69.198769 69.198769 0 0 0-69.238153 69.021538c0 19.456 8.132923 37.021538 21.149538 49.604924L75.52 442.052923A69.198769 69.198769 0 0 0 0 510.779077c0 29.991385 19.298462 55.571692 46.158769 65.063385v311.394461A69.139692 69.139692 0 0 0 0 952.32a69.198769 69.198769 0 0 0 69.218462 69.021538 69.316923 69.316923 0 0 0 65.181538-45.784615h277.622154a23.04 23.04 0 0 0 23.079384-23.000615 23.04 23.04 0 0 0-23.079384-23.000616H134.557538a68.588308 68.588308 0 0 0-1.378461-3.603692L465.329231 646.892308h310.941538c47.104 0 85.425231-38.203077 85.425231-85.129846 0-9.747692-1.673846-19.160615-4.726154-28.002462h190.109539c3.387077 9.570462 8.861538 18.156308 15.832615 25.265231l-159.547077 324.726154a69.238154 69.238154 0 0 0-25.915077 1.890461l-131.150769-190.424615a23.118769 23.118769 0 0 0-32.098462-5.927385 22.961231 22.961231 0 0 0-5.947077 31.980308l131.170462 190.444308c-3.938462 5.415385-7.128615 11.401846-9.393231 17.821538H608.157538a23.04 23.04 0 0 0-23.079384 23.000615 23.04 23.04 0 0 0 23.079384 23.000616h222.011077a69.316923 69.316923 0 0 0 65.181539 45.784615 69.198769 69.198769 0 0 0 69.238154-69.021538c0-18.766769-7.581538-35.820308-19.810462-48.265846l159.547077-324.726154A69.198769 69.198769 0 0 0 1181.538462 510.759385a69.179077 69.179077 0 0 0-56.14277-67.780923zM895.350154 975.300923a23.059692 23.059692 0 0 1-23.079385-23.000615 23.059692 23.059692 0 0 1 46.158769 0c0 12.681846-10.358154 23.000615-23.079384 23.000615z m138.436923-929.28c12.740923 0 23.099077 10.318769 23.099077 23.000615a23.059692 23.059692 0 0 1-46.158769 0c0-12.681846 10.358154-23.000615 23.079384-23.000615z m-747.618462 0c12.721231 0 23.079385 10.318769 23.079385 23.000615a23.059692 23.059692 0 0 1-46.158769 0c0-12.681846 10.358154-23.000615 23.079384-23.000615zM46.158769 510.779077a23.059692 23.059692 0 0 1 46.139077 0 23.04 23.04 0 0 1-19.003077 22.626461 23.296 23.296 0 0 0-8.152615 0 23.04 23.04 0 0 1-18.983385-22.626461z m23.059693 464.541538a23.059692 23.059692 0 0 1-23.059693-23.020307 23.059692 23.059692 0 0 1 46.139077 0c0 12.681846-10.358154 23.000615-23.079384 23.000615z m33.102769-83.613538a69.021538 69.021538 0 0 0-10.023385-4.470154V575.842462a69.474462 69.474462 0 0 0 42.082462-41.747693h113.703384a23.04 23.04 0 0 0 23.079385-23.04 23.04 23.04 0 0 0-23.079385-22.980923H134.577231a69.159385 69.159385 0 0 0-17.132308-26.742154l162.638769-323.564307a69.218462 69.218462 0 0 0 23.985231-2.067693l154.328615 224.177231a176.285538 176.285538 0 0 0-40.763076 68.332308c-54.665846 6.380308-97.220923 52.814769-97.220924 108.977231 0 49.624615 33.260308 91.628308 78.710154 105.156923L102.321231 891.687385zM776.270769 600.871385H430.513231a63.881846 63.881846 0 0 1-63.940923-63.684923 63.901538 63.901538 0 0 1 63.940923-63.704616c25.265231 0 48.226462 14.887385 58.486154 37.907692a23.079385 23.079385 0 0 0 42.180923-18.688 110.08 110.08 0 0 0-66.244923-59.707076 132.135385 132.135385 0 0 1 122.092307-82.25477c54.941538 0 104.566154 34.540308 123.529846 85.937231a23.04 23.04 0 0 0 24.083693 14.946462 39.246769 39.246769 0 0 1 42.515692 47.517538 23.000615 23.000615 0 0 0 13.843692 26.348308 38.990769 38.990769 0 0 1 24.516923 36.273231 39.246769 39.246769 0 0 1-39.266461 39.108923z m270.808616-113.132308H824.201846a85.385846 85.385846 0 0 0-76.662154-81.92 175.419077 175.419077 0 0 0-6.518154-12.327385l79.497847-79.261538a22.961231 22.961231 0 0 0 0-32.551385 23.118769 23.118769 0 0 0-32.630154 0l-75.264 75.027693a178.491077 178.491077 0 0 0-125.597539-51.987693 177.368615 177.368615 0 0 0-92.612923 26.151385L342.094769 109.627077c3.918769-5.336615 7.089231-11.264 9.334154-17.604923h617.117539c0.827077 2.304 1.752615 4.548923 2.796307 6.734769l-71.916307 71.719385a22.961231 22.961231 0 0 0 16.30523 39.286154c5.907692 0 11.815385-2.244923 16.324923-6.754462l71.916308-71.699692c5.789538 2.756923 12.032 4.726154 18.569846 5.80923l57.206154 312.753231a69.435077 69.435077 0 0 0-32.689231 37.868308z m65.240615 46.020923a23.059692 23.059692 0 0 1-23.059692-23.000615 23.059692 23.059692 0 0 1 46.139077 0c0 12.681846-10.338462 23.000615-23.079385 23.000615z m-580.135385 402.510769c4.292923 4.273231 6.774154 10.220308 6.774154 16.265846 0 6.045538-2.481231 11.992615-6.774154 16.265847-4.292923 4.273231-10.24 6.734769-16.30523 6.734769-6.065231 0-12.012308-2.461538-16.324923-6.734769a23.138462 23.138462 0 0 1-6.754462-16.265847c0-6.045538 2.461538-11.992615 6.754462-16.265846 4.292923-4.273231 10.24-6.754462 16.324923-6.754461 6.065231 0 12.012308 2.481231 16.30523 6.754461z m347.195077-713.255384c4.292923 4.273231 6.754462 10.220308 6.754462 16.265846a23.118769 23.118769 0 0 1-23.059692 23.020307 23.138462 23.138462 0 0 1-23.079385-23.000615c0-6.065231 2.461538-12.012308 6.754461-16.285538 4.292923-4.273231 10.24-6.734769 16.324924-6.73477 6.065231 0 12.012308 2.461538 16.30523 6.73477z" fill="#13227a" p-id="37629"></path></svg>