<svg t="1647138521744" class="icon" viewBox="0 0 1024 1024" version="1.1" xmlns="http://www.w3.org/2000/svg" p-id="25144" width="200" height="200"><path d="M896 288V896c0 70.4-57.6 128-128 128H256c-70.4 0-128-57.6-128-128V288C230.4 345.6 364.8 384 512 384s281.6-38.4 384-96zM595.2 633.6c-64 0-108.8 44.8-108.8 102.4 0 57.6 51.2 102.4 108.8 102.4 12.8 0 25.6-6.4 38.4-6.4l38.4 19.2-12.8-38.4 6.4-6.4c25.6-12.8 38.4-38.4 38.4-70.4 0-57.6-51.2-102.4-108.8-102.4zM454.4 512C384 512 320 569.6 320 640c0 38.4 19.2 76.8 57.6 102.4l-12.8 44.8 44.8-25.6h12.8c12.8 6.4 19.2 6.4 32 6.4h12.8c0-12.8-6.4-19.2-6.4-32 0-64 51.2-121.6 115.2-121.6h12.8C582.4 556.8 524.8 512 454.4 512z m102.4 179.2c12.8 0 19.2 6.4 19.2 12.8s-6.4 12.8-19.2 12.8c-6.4 0-12.8-6.4-12.8-12.8s6.4-12.8 12.8-12.8z m70.4 0c12.8 0 19.2 6.4 19.2 12.8s-6.4 12.8-19.2 12.8c-6.4 0-12.8-6.4-12.8-12.8s6.4-12.8 12.8-12.8zM505.6 576c12.8 0 19.2 6.4 19.2 19.2 0 12.8-6.4 19.2-19.2 19.2-12.8 0-19.2-6.4-19.2-19.2 0-12.8 12.8-19.2 19.2-19.2zM409.6 576c12.8 0 19.2 6.4 19.2 19.2 0 12.8-6.4 19.2-19.2 19.2-12.8 0-19.2-6.4-19.2-19.2 0-12.8 12.8-19.2 19.2-19.2zM768 0c70.4 0 128 57.6 128 128v96C793.6 281.6 659.2 320 512 320s-281.6-38.4-384-96V128C128 57.6 185.6 0 256 0h512z" fill="#d81e06" p-id="25145"></path></svg>