<svg t="1647137906980" class="icon" viewBox="0 0 1024 1024" version="1.1" xmlns="http://www.w3.org/2000/svg" p-id="7255" width="200" height="200"><path d="M410.667 67.934c0.9 2.8 3.5 4.7 6.5 4.8 70 2.8 128.6 65.6 128.6 136.1v82.8c0 1.5 1.2 2.7 2.7 2.7h117.5c21.3 0 39.9 15.9 42.7 37.2v3l10.5 173.8c0.1 1.4-0.9 2.6-2.3 2.8-231.2 35.6-406.2 208.7-411.5 413.6v32c0 1.5-1.2 2.7-2.7 2.7h-165.5c-24 0-42.7-18.7-42.7-45.4V908.735v-0.2l37.4-579.3v-0.2c2.7-21.3 2.3-32.2 23.5-34.9 0.1 0 8.4-0.2 8.5-0.2l9.4-0.1 106.1 1.6c3.5 1.1 2.2-8.3 2.2-9.8l-0.2-84.6c0-68.8 57.6-132.3 126.2-136.1 1.2-0.1 2.3 0.7 2.7 1.8l0.4 1.2z m311.2 525.9c1.5-0.2 3 0.9 3.1 2.5l21.2 320.2c2.7 24-16 45.3-42.6 48.1H316.467c-1.6 0-2.9-1.4-2.7-3 25.4-184.8 194.3-335 408.1-367.8z m-309.6-467.8c-42.7 0-80.1 40.1-80.1 82.8v82.8c0 1.5 1.2 2.7 2.7 2.7h154.8c1.5 0 2.7-1.2 2.7-2.7v-82.8c0-40-34.7-80-74.7-82.8h-5.4z" fill="#FF6146" p-id="7256"></path><path d="M946.367 489.234c13.4-2.7 18.7-13.4 18.7-24 0-10.5-7.7-18.4-18.1-23.7-0.4-0.2-0.8-0.3-1.2-0.3h-1.7c-0.2 0-0.5 0-0.7-0.1-61.1-16.2-66.4-74.7-66.4-88 0-13.4-10.7-21.4-24-21.4-13.4 0-24 10.7-24 24 0 10.7-5.3 69.2-66.4 88-0.3 0.1-0.5 0.1-0.8 0.1h-1.9c-0.2 0-0.5 0-0.7 0.1-10.5 2.8-18.3 13.4-18.3 23.9 0 10.7 8 18.7 18.7 24 61.4 16 66.8 74.8 66.8 88.1 0 13.4 10.7 21.4 24 21.4 13.2 0 23.8-10.4 24-23.6 0-0.3 0.1-0.6 0.2-0.9 5.1-14 11-71.7 71.8-87.6" fill="#ED1C24" p-id="7257"></path></svg>