<svg t="1647138238779" class="icon" viewBox="0 0 1024 1024" version="1.1" xmlns="http://www.w3.org/2000/svg" p-id="17770" width="200" height="200"><path d="M289.471057 400.222316C302.621373 356.298105 13.583899 224.471579 0.433583 356.298105c-13.123368 131.799579 275.914105 87.848421 289.037474 43.924211zM420.327478 292.540632c41.337263 19.833263 216.737684-245.032421 88.602947-278.63579-128.134737-33.576421-129.940211 258.775579-88.602947 278.63579zM347.461794 517.173895c-41.498947-13.096421-152.171789 222.342737-179.81979 287.744-27.674947 65.401263-41.498947 130.802526 27.648 143.898947 69.173895 13.069474 82.997895-20.210526 110.672842-117.733053 27.674947-97.522526 82.997895-300.840421 41.498948-313.936842zM561.154425 361.849263c2.667789 43.439158 262.117053 62.383158 333.069474 64.781474 70.979368 2.398316 137.000421-8.111158 124.416-77.392842-12.557474-69.254737-48.586105-70.251789-149.557895-61.143579-100.944842 9.135158-310.595368 30.342737-307.927579 73.754947zM501.870215 554.765474c-55.969684 44.463158 98.384842 235.304421 175.077052 342.501052 76.692211 107.223579 101.968842 149.638737 175.023158 97.360842 73.081263-52.277895 2.721684-121.478737-62.464-200.245894-65.212632-78.794105-231.639579-284.052211-287.63621-239.616z" p-id="17771" fill="#e66762"></path></svg>