<svg t="1647137612193" class="icon" viewBox="0 0 1303 1024" version="1.1" xmlns="http://www.w3.org/2000/svg" p-id="6329" width="200" height="200"><path d="M636.369455 823.645091a11.636364 11.636364 0 0 0 16.47709 0l363.752728-365.707636a11.636364 11.636364 0 0 1 16.477091 0l99.188363 99.746909a11.776 11.776 0 0 1 0 16.570181L721.454545 987.461818l-5.096727 5.12a103.028364 103.028364 0 0 1-73.076363 30.440727 103.028364 103.028364 0 0 1-73.076364-30.440727l-5.073455-5.050182-532.48-535.505454a111.639273 111.639273 0 0 1 0-157.230546l256.930909-258.397091a110.126545 110.126545 0 0 1 156.32291 0l114.711272 115.293091a11.776 11.776 0 0 1 0 16.64l-100.538182 101.189819a11.636364 11.636364 0 0 1-16.523636 0l-66.187636-66.56a11.636364 11.636364 0 0 0-16.477091 0l-162.536727 163.490909a11.776 11.776 0 0 0 0 16.64L636.369455 823.621818z m209.314909-792.343273a103.028364 103.028364 0 0 1 73.076363-30.440727c27.415273 0 53.690182 10.938182 73.076364 30.440727l267.101091 268.637091a104.331636 104.331636 0 0 1 0 146.920727l-35.723637 36.002909a11.636364 11.636364 0 0 1-16.47709 0L928.325818 203.008a11.636364 11.636364 0 0 0-16.477091 0L652.846545 463.476364a11.636364 11.636364 0 0 1-16.523636 0l-101.934545-102.539637a11.776 11.776 0 0 1 0-16.570182L845.707636 31.301818z" fill="#eda081" p-id="6330"></path></svg>