<svg t="1646994593409" class="icon" viewBox="0 0 1024 1024" version="1.1" xmlns="http://www.w3.org/2000/svg" p-id="8632" width="200" height="200"><path d="M682.666667 160H341.333333c-17.493333 0-32-14.506667-32-32s14.506667-32 32-32h341.333334c17.493333 0 32 14.506667 32 32s-14.506667 32-32 32zM682.666667 928H341.333333c-17.493333 0-32-14.506667-32-32s14.506667-32 32-32h341.333334c17.493333 0 32 14.506667 32 32s-14.506667 32-32 32zM661.333333 213.333333h-298.666666C263.253333 213.333333 213.333333 263.253333 213.333333 362.666667v298.666666C213.333333 760.746667 263.253333 810.666667 362.666667 810.666667h298.666666c99.413333 0 149.333333-49.92 149.333334-149.333334v-298.666666C810.666667 263.253333 760.746667 213.333333 661.333333 213.333333z m-42.666666 352h-128c-17.493333 0-32-14.506667-32-32v-128c0-17.493333 14.506667-32 32-32s32 14.506667 32 32v96h96c17.493333 0 32 14.506667 32 32s-14.506667 32-32 32z" fill="#ffffff" p-id="8633"></path></svg>