<svg t="1647139195698" class="icon" viewBox="0 0 1024 1024" version="1.1" xmlns="http://www.w3.org/2000/svg" p-id="43085" width="200" height="200"><path d="M824.808727 127.138909V558.08c0 37.236364-41.541818 59.392-72.471272 38.632727l-90.437819-60.648727-90.437818 60.672c-30.929455 20.712727-72.471273-1.419636-72.471273-38.656V229.096727a46.545455 46.545455 0 0 1-8.145454-1.954909L166.190545 117.410909A46.545455 46.545455 0 0 0 104.727273 161.489455v285.02109a46.545455 46.545455 0 1 1-93.090909 0V161.489455a139.636364 139.636364 0 0 1 184.343272-132.282182l309.992728 104.773818L829.114182 27.694545a139.636364 139.636364 0 0 1 183.249454 132.654546v563.386182c0 2.094545-0.139636 4.119273-0.395636 6.144C1001.192727 889.623273 778.007273 1003.287273 512 1003.287273 245.992727 1003.287273 22.807273 889.623273 12.032 729.902545a46.987636 46.987636 0 0 1-0.395636-6.144v-64.116363a46.545455 46.545455 0 1 1 93.090909 0v60.672l0.069818 1.349818C109.149091 818.641455 287.092364 910.196364 512 910.196364s402.850909-91.554909 407.202909-188.509091l0.069818-1.396364V160.395636a46.545455 46.545455 0 0 0-61.090909-44.218181l-33.373091 10.984727z m-93.090909 30.603636l-139.636363 45.917091v267.170909l43.892363-29.44a46.545455 46.545455 0 0 1 51.851637 0l43.892363 29.44V157.742545z" fill="#378806" p-id="43086"></path></svg>